<svg width="254" height="255" viewBox="0 0 254 255" fill="none" xmlns="http://www.w3.org/2000/svg">
<g clip-path="url(#clip0_9952_3387)">
<path d="M252.471 127.46C252.471 196.8 196.251 253.02 126.911 253.02H126.731C57.4909 252.91 1.38086 196.75 1.38086 127.46C1.38086 58.1702 57.5009 2.03018 126.731 1.93018H126.911C196.251 1.93018 252.471 58.1202 252.471 127.46Z" stroke="#009EFF" stroke-width="2.64" stroke-miterlimit="10"/>
<path opacity="0.8" d="M97.7695 166.38L118.9 194.5C122.96 199.9 131.07 199.9 135.12 194.5L156.25 166.38L127.01 127.46L97.7695 166.38Z" fill="#009EFF"/>
<path opacity="0.8" d="M165.83 156.62L193.95 135.49C199.35 131.43 199.35 123.32 193.95 119.27L165.83 98.1401L126.91 127.38L165.83 156.62Z" fill="#009EFF"/>
<path opacity="0.8" d="M156.179 88.5501L135.049 60.4301C130.989 55.0301 122.879 55.0301 118.829 60.4301L97.6992 88.5501L126.939 127.47L156.179 88.5501Z" fill="#009EFF"/>
<path opacity="0.8" d="M88.0294 98.2701L59.9094 119.4C54.5094 123.46 54.5094 131.57 59.9094 135.62L88.0294 156.75L126.949 127.51L88.0294 98.2701Z" fill="#009EFF"/>
<g opacity="0.5">
<path d="M126.93 127.46C11.8499 127.46 126.93 242.54 126.93 127.46C11.8499 127.46 126.93 12.3801 126.93 127.46C242.01 127.46 126.93 12.3801 126.93 127.46C242.01 127.46 126.93 242.54 126.93 127.46Z" fill="#009EFF"/>
</g>
<path opacity="0.1" d="M126.931 245.68C192.222 245.68 245.151 192.751 245.151 127.46C245.151 62.1689 192.222 9.23999 126.931 9.23999C61.6398 9.23999 8.71094 62.1689 8.71094 127.46C8.71094 192.751 61.6398 245.68 126.931 245.68Z" stroke="#009EFF" stroke-width="2.64" stroke-miterlimit="10"/>
</g>
<defs>
<clipPath id="clip0_9952_3387">
<rect width="253.72" height="253.72" fill="white" transform="translate(0.0703125 0.610107)"/>
</clipPath>
</defs>
</svg>
